HIERARCHY
ROOT hip
{
  OFFSET 0 0 0
  CHANNELS 6 Xposition Yposition Zposition Zrotation Yrotation Xrotation
  JOINT abdomen
  {
    OFFSET 0 20.6881 -0.73152
    CHANNELS 3 Zrotation Xrotation Yrotation
    JOINT chest
    {
      OFFSET 0 11.7043 -0.48768
      CHANNELS 3 Zrotation Xrotation Yrotation
      JOINT neck
      {
        OFFSET 0 22.1894 -2.19456
        CHANNELS 3 Zrotation Xrotation Yrotation
        JOINT head
        {
          OFFSET -0.24384 7.07133 1.2192
          CHANNELS 3 Zrotation Xrotation Yrotation
          JOINT leftEye
          {
            OFFSET 4.14528 8.04674 8.04672
            CHANNELS 3 Zrotation Xrotation Yrotation
            End Site
            {
              OFFSET 1 0 0
            }
          }
          JOINT rightEye
          {
            OFFSET -3.6576 8.04674 8.04672
            CHANNELS 3 Zrotation Xrotation Yrotation
            End Site
            {
              OFFSET 1 0 0
            }
          }
        }
      }
      JOINT rCollar
      {
        OFFSET -2.68224 19.2634 -4.8768
        CHANNELS 3 Zrotation Xrotation Yrotation
        JOINT rShldr
        {
          OFFSET -8.77824 -1.95073 1.46304
          CHANNELS 3 Zrotation Xrotation Yrotation
          JOINT rForeArm
          {
            OFFSET -28.1742 -1.7115 0.48768
            CHANNELS 3 Zrotation Xrotation Yrotation
            JOINT rHand
            {
              OFFSET -22.5879 0.773209 7.07136
              CHANNELS 3 Zrotation Xrotation Yrotation
              JOINT rThumb1
              {
                OFFSET -1.2192 -0.487915 3.41376
                CHANNELS 3 Zrotation Xrotation Yrotation
                JOINT rThumb2
                {
                  OFFSET -3.37035 -0.52449 3.41376
                  CHANNELS 3 Zrotation Xrotation Yrotation
                  End Site
                  {
                    OFFSET -1.78271 -1.18214 1.43049
                  }
                }
              }
              JOINT rIndex1
              {
                OFFSET -7.75947 0.938293 5.60832
                CHANNELS 3 Zrotation Xrotation Yrotation
                JOINT rIndex2
                {
                  OFFSET -2.54057 -0.884171 1.56538
                  CHANNELS 3 Zrotation Xrotation Yrotation
                  End Site
                  {
                    OFFSET -1.62519 -0.234802 1.16502
                  }
                }
              }
              JOINT rMid1
              {
                OFFSET -8.24714 1.18213 3.41376
                CHANNELS 3 Zrotation Xrotation Yrotation
                JOINT rMid2
                {
                  OFFSET -3.10165 -0.590103 1.0647
                  CHANNELS 3 Zrotation Xrotation Yrotation
                  End Site
                  {
                    OFFSET -2.48547 -0.328903 0.83742
                  }
                }
              }
              JOINT rRing1
              {
                OFFSET -8.82822 0.546677 1.51678
                CHANNELS 3 Zrotation Xrotation Yrotation
                JOINT rRing2
                {
                  OFFSET -2.60934 -0.819778 -0.0198488
                  CHANNELS 3 Zrotation Xrotation Yrotation
                  End Site
                  {
                    OFFSET -2.33842 -0.294052 0.168128
                  }
                }
              }
              JOINT rPinky1
              {
                OFFSET -8.27202 -0.0477905 -0.4584
                CHANNELS 3 Zrotation Xrotation Yrotation
                JOINT rPinky2
                {
                  OFFSET -1.82734 -0.647385 -0.700984
                  CHANNELS 3 Zrotation Xrotation Yrotation
                  End Site
                  {
                    OFFSET -1.69225 -0.51767 -0.607171
                  }
                }
              }
            }
          }
        }
      }
      JOINT lCollar
      {
        OFFSET 2.68224 19.2634 -4.8768
        CHANNELS 3 Zrotation Xrotation Yrotation
        JOINT lShldr
        {
          OFFSET 8.77824 -1.95073 1.46304
          CHANNELS 3 Zrotation Xrotation Yrotation
          JOINT lForeArm
          {
            OFFSET 28.1742 -1.7115 0.48768
            CHANNELS 3 Zrotation Xrotation Yrotation
            JOINT lHand
            {
              OFFSET 22.5879 0.773209 7.07136
              CHANNELS 3 Zrotation Xrotation Yrotation
              JOINT lThumb1
              {
                OFFSET 1.2192 -0.487915 3.41376
                CHANNELS 3 Zrotation Xrotation Yrotation
                JOINT lThumb2
                {
                  OFFSET 3.37035 -0.52449 3.41376
                  CHANNELS 3 Zrotation Xrotation Yrotation
                  End Site
                  {
                    OFFSET 1.78271 -1.18214 1.43049
                  }
                }
              }
              JOINT lIndex1
              {
                OFFSET 7.75947 0.938293 5.60832
                CHANNELS 3 Zrotation Xrotation Yrotation
                JOINT lIndex2
                {
                  OFFSET 2.54057 -0.884171 1.56538
                  CHANNELS 3 Zrotation Xrotation Yrotation
                  End Site
                  {
                    OFFSET 1.62519 -0.234802 1.16502
                  }
                }
              }
              JOINT lMid1
              {
                OFFSET 8.24714 1.18213 3.41376
                CHANNELS 3 Zrotation Xrotation Yrotation
                JOINT lMid2
                {
                  OFFSET 3.10165 -0.590103 1.0647
                  CHANNELS 3 Zrotation Xrotation Yrotation
                  End Site
                  {
                    OFFSET 2.48547 -0.328903 0.83742
                  }
                }
              }
              JOINT lRing1
              {
                OFFSET 8.82822 0.546677 1.51678
                CHANNELS 3 Zrotation Xrotation Yrotation
                JOINT lRing2
                {
                  OFFSET 2.60934 -0.819778 -0.0198488
                  CHANNELS 3 Zrotation Xrotation Yrotation
                  End Site
                  {
                    OFFSET 2.33842 -0.294052 0.168128
                  }
                }
              }
              JOINT lPinky1
              {
                OFFSET 8.27202 -0.0477905 -0.4584
                CHANNELS 3 Zrotation Xrotation Yrotation
                JOINT lPinky2
                {
                  OFFSET 1.82734 -0.647385 -0.700984
                  CHANNELS 3 Zrotation Xrotation Yrotation
                  End Site
                  {
                    OFFSET 1.69225 -0.51767 -0.607171
                  }
                }
              }
            }
          }
        }
      }
    }
  }
  JOINT rButtock
  {
    OFFSET -8.77824 4.35084 1.2192
    CHANNELS 3 Zrotation Xrotation Yrotation
    JOINT rThigh
    {
      OFFSET 0 -1.70687 -2.19456
      CHANNELS 3 Zrotation Xrotation Yrotation
      JOINT rShin
      {
        OFFSET 0 -36.8199 0.73152
        CHANNELS 3 Zrotation Xrotation Yrotation
        JOINT rFoot
        {
          OFFSET 0.73152 -45.1104 -5.12064
          CHANNELS 3 Zrotation Xrotation Yrotation
          End Site
          {
            OFFSET -1.1221 -3.69964 12.103
          }
        }
      }
    }
  }
  JOINT lButtock
  {
    OFFSET 8.77824 4.35084 1.2192
    CHANNELS 3 Zrotation Xrotation Yrotation
    JOINT lThigh
    {
      OFFSET 0 -1.70687 -2.19456
      CHANNELS 3 Zrotation Xrotation Yrotation
      JOINT lShin
      {
        OFFSET 0 -36.8199 0.73152
        CHANNELS 3 Zrotation Xrotation Yrotation
        JOINT lFoot
        {
          OFFSET -0.73152 -45.1104 -5.12064
          CHANNELS 3 Zrotation Xrotation Yrotation
          End Site
          {
            OFFSET 1.1221 -3.69964 12.103
          }
        }
      }
    }
  }
}
MOTION
Frames:	7
Frame Time:	0.00833333
-72.5216 151.095 -54.8856 -98.0835 84.5534 292.299 1.04332 26.8988 -3.84776 2.04265 -2.30958 -0.575548 -1.38716 21.8864 -21.319 11.2575 -66.0327 -41.7072 -0.0 0.0 0.0 -0.0 0.0 0.0 4.28916e-14 -4.23948e-13 1.04213e-13 48.0316 44.1493 35.0286 -22.2272 -16.1023 44.408 -1.09008 28.2472 4.33031 -8.47265e-10 3.38417e-10 -2.14824e-10 -1.46554e-09 5.84332e-10 -3.54153e-10 -8.47262e-10 3.38413e-10 -2.14831e-10 7.73091 5.47488 0.417314 -8.47264e-10 3.38414e-10 -2.14827e-10 2.90554 0.965183 0.102902 -8.47255e-10 3.38415e-10 -2.14824e-10 10.2786 0.731801 0.0259123 -8.47269e-10 3.38421e-10 -2.14818e-10 2.22167 -0.733487 -0.20892 4.27874e-14 -4.23944e-13 1.04064e-13 -58.6025 37.7573 -21.7972 22.5018 -16.5297 -45.168 1.9227 36.1334 -5.88947 8.71032e-10 3.33507e-10 -1.42772e-10 1.49668e-09 5.65162e-10 -2.68219e-10 8.71032e-10 3.33509e-10 -1.42769e-10 -7.73091 5.47488 -0.417314 8.71035e-10 3.33509e-10 -1.42781e-10 -2.90554 0.965183 -0.102902 8.71035e-10 3.33506e-10 -1.42781e-10 -10.2786 0.731801 -0.0259123 8.7104e-10 3.33509e-10 -1.42785e-10 -2.22167 -0.733487 0.20892 -2.03217e-16 0.0 -3.88251e-19 3.82878 -26.7654 -1.31955 -0.200746 31.6225 0.701607 -6.15941 -25.5896 -11.1442 2.03217e-16 0.0 3.88251e-19 3.56536 -30.3806 5.01447 0.221366 38.5425 -0.831361 0.427778 -29.5227 -0.302026
-72.524 151.097 -54.9405 -96.6161 84.5359 293.767 1.20064 26.8559 -3.73669 1.9984 -2.35183 -0.537443 -1.77053 22.2762 -20.7954 12.4259 -66.6611 -39.7867 -0.0 0.0 0.0 -0.0 0.0 0.0 5.503e-14 -7.31285e-13 1.0923e-13 48.4717 43.7779 34.6692 -22.1363 -15.9644 44.155 -1.14104 28.807 4.43354 -8.7556e-10 3.52198e-10 -4.09404e-10 -1.51908e-09 6.10123e-10 -6.90616e-10 -8.75558e-10 3.52193e-10 -4.0941e-10 7.73091 5.47488 0.417314 -8.75559e-10 3.52195e-10 -4.09405e-10 2.90554 0.965183 0.102902 -8.75551e-10 3.52195e-10 -4.09403e-10 10.2786 0.731801 0.0259123 -8.75564e-10 3.52199e-10 -4.09396e-10 2.22167 -0.733487 -0.20892 5.49582e-14 -7.31284e-13 1.0908e-13 -58.6697 37.9299 -21.9534 22.4409 -16.4344 -44.9957 1.92545 36.154 -5.89401 8.41912e-10 3.07462e-10 -3.68526e-10 1.43971e-09 5.15706e-10 -6.57281e-10 8.41911e-10 3.07464e-10 -3.68523e-10 -7.73091 5.47488 -0.417314 8.41914e-10 3.07464e-10 -3.68534e-10 -2.90554 0.965183 -0.102902 8.41912e-10 3.07462e-10 -3.68534e-10 -10.2786 0.731801 -0.0259123 8.41919e-10 3.07465e-10 -3.68537e-10 -2.22167 -0.733487 0.20892 -2.03217e-16 0.0 -3.88251e-19 3.88878 -26.6858 -1.25873 -0.200906 31.6321 0.7016 -6.14953 -25.6263 -11.1131 2.03217e-16 0.0 3.88251e-19 3.71977 -30.2746 5.31829 0.219926 38.4767 -0.82989 0.471707 -29.4734 -0.220696
-72.4229 151.117 -54.7788 -100.683 84.2518 289.512 1.42741 26.7927 -3.48222 1.98119 -2.47248 -0.455407 -2.35901 22.8541 -20.3582 13.6764 -67.2828 -38.0157 -0.0 0.0 0.0 -0.0 0.0 0.0 6.66309e-14 -1.19854e-12 1.05598e-13 48.9956 43.3592 34.0847 -22.0144 -15.7806 43.8215 -1.16871 29.1187 4.49089 -4.96628e-10 1.40473e-10 -6.88636e-10 -8.71643e-10 2.47079e-10 -1.18115e-09 -4.96626e-10 1.4047e-10 -6.88641e-10 7.73091 5.47488 0.417314 -4.96627e-10 1.4047e-10 -6.88632e-10 2.90554 0.965183 0.102902 -4.96621e-10 1.40469e-10 -6.88634e-10 10.2786 0.731801 0.0259123 -4.96632e-10 1.40472e-10 -6.88624e-10 2.22167 -0.733487 -0.20892 6.66027e-14 -1.19854e-12 1.05452e-13 -58.9323 38.2267 -22.1606 22.3496 -16.292 -44.742 1.94691 36.3215 -5.93035 3.69245e-10 1.10258e-10 -8.30187e-10 6.11382e-10 1.71021e-10 -1.44165e-09 3.69243e-10 1.1026e-10 -8.30186e-10 -7.73091 5.47488 -0.417314 3.69246e-10 1.1026e-10 -8.30192e-10 -2.90554 0.965183 -0.102902 3.69241e-10 1.10259e-10 -8.30193e-10 -10.2786 0.731801 -0.0259123 3.69249e-10 1.10261e-10 -8.30197e-10 -2.22167 -0.733487 0.20892 -2.03217e-16 0.0 -3.88251e-19 3.99584 -26.576 -1.18706 -0.201029 31.6556 0.703466 -6.16921 -25.6953 -11.1264 2.03217e-16 0.0 3.88251e-19 3.93726 -30.129 5.7215 0.218323 38.4044 -0.828085 0.519309 -29.4457 -0.13403
-72.4158 151.111 -54.8819 -99.3954 84.3728 290.758 1.63697 26.7211 -3.17139 1.96413 -2.6076 -0.359311 -2.94885 23.465 -19.9649 14.8853 -67.8886 -36.3538 -0.0 0.0 0.0 -0.0 0.0 0.0 7.40258e-14 -1.61035e-12 9.39188e-14 49.5406 42.9489 33.4499 -21.8932 -15.5988 43.4972 -1.18495 29.3126 4.52617 4.02933e-12 -1.31103e-10 -9.1686e-10 -1.29261e-11 -2.19783e-10 -1.58576e-09 4.03136e-12 -1.31105e-10 -9.16866e-10 7.73091 5.47488 0.417314 4.03022e-12 -1.31107e-10 -9.16852e-10 2.90554 0.965183 0.102902 4.03425e-12 -1.31108e-10 -9.16857e-10 10.2786 0.731801 0.0259123 4.02479e-12 -1.31106e-10 -9.16846e-10 2.22167 -0.733487 -0.20892 7.40325e-14 -1.61036e-12 9.37755e-14 -59.2268 38.5362 -22.395 22.245 -16.1299 -44.4552 1.97731 36.5562 -5.98158 -2.13329e-10 -1.25123e-10 -1.27049e-09 -4.05673e-10 -2.37886e-10 -2.1862e-09 -2.13332e-10 -1.2512e-10 -1.27049e-09 -7.73091 5.47488 -0.417314 -2.13328e-10 -1.25121e-10 -1.2705e-09 -2.90554 0.965183 -0.102902 -2.13337e-10 -1.25121e-10 -1.2705e-09 -10.2786 0.731801 -0.0259123 -2.13328e-10 -1.25119e-10 -1.2705e-09 -2.22167 -0.733487 0.20892 -2.03217e-16 0.0 -3.88251e-19 4.10791 -26.4647 -1.09298 -0.201221 31.6818 0.705034 -6.1764 -25.794 -11.1067 2.03217e-16 0.0 3.88251e-19 4.12044 -29.9759 6.06422 0.216758 38.3358 -0.826796 0.576614 -29.4373 -0.028999
-72.395 151.058 -54.8119 -97.9265 84.3752 292.181 1.74198 26.6536 -2.89097 1.91977 -2.69325 -0.279046 -3.33282 23.9521 -19.5723 15.9294 -68.4668 -34.7587 -0.0 0.0 0.0 -0.0 0.0 0.0 7.3546e-14 -1.75135e-12 7.47927e-14 50.0545 42.6089 32.9321 -21.8068 -15.4699 43.2706 -1.20304 29.5189 4.56415 3.4091e-10 -2.96879e-10 -9.58416e-10 5.67364e-10 -5.05444e-10 -1.66446e-09 3.40913e-10 -2.9688e-10 -9.58422e-10 7.73091 5.47488 0.417314 3.4091e-10 -2.96883e-10 -9.58406e-10 2.90554 0.965183 0.102902 3.40913e-10 -2.96884e-10 -9.58412e-10 10.2786 0.731801 0.0259123 3.40905e-10 -2.96883e-10 -9.584e-10 2.22167 -0.733487 -0.20892 7.35596e-14 -1.75136e-12 7.46436e-14 -59.3925 38.7479 -22.6306 22.145 -15.9766 -44.1832 2.00646 36.7787 -6.03043 -5.7217e-10 -2.65698e-10 -1.43218e-09 -1.02881e-09 -4.80012e-10 -2.45583e-09 -5.72174e-10 -2.65696e-10 -1.43218e-09 -7.73091 5.47488 -0.417314 -5.7217e-10 -2.65696e-10 -1.43218e-09 -2.90554 0.965183 -0.102902 -5.72181e-10 -2.65695e-10 -1.43218e-09 -10.2786 0.731801 -0.0259123 -5.72171e-10 -2.65694e-10 -1.43218e-09 -2.22167 -0.733487 0.20892 -2.03217e-16 0.0 -3.88251e-19 4.18299 -26.3803 -0.964875 -0.201586 31.6993 0.70413 -6.12844 -25.9202 -10.9762 2.03217e-16 0.0 3.88251e-19 4.17452 -29.8486 6.18791 0.215425 38.2812 -0.826865 0.649655 -29.4458 0.107428
-72.3705 151.007 -54.7799 -97.4399 84.3864 292.614 1.69001 26.5941 -2.6316 1.81281 -2.71097 -0.216386 -3.33289 24.2673 -19.203 16.513 -69.0462 -33.4603 -0.0 0.0 0.0 -0.0 0.0 0.0 5.92671e-14 -1.44009e-12 3.99573e-14 50.6057 42.3453 32.5389 -21.7692 -15.414 43.1727 -1.22658 29.7731 4.61163 4.52683e-10 -3.07858e-10 -6.82503e-10 7.66368e-10 -5.26335e-10 -1.19005e-09 4.52689e-10 -3.07858e-10 -6.82512e-10 7.73091 5.47488 0.417314 4.52684e-10 -3.0786e-10 -6.82495e-10 2.90554 0.965183 0.102902 4.52686e-10 -3.07861e-10 -6.82501e-10 10.2786 0.731801 0.0259123 4.52679e-10 -3.07861e-10 -6.82489e-10 2.22167 -0.733487 -0.20892 5.92381e-14 -1.44009e-12 3.97892e-14 -59.3683 38.8061 -22.9023 22.039 -15.8164 -43.8933 2.03821 37.019 -6.08344 -6.00292e-10 -2.64133e-10 -1.14728e-09 -1.06866e-09 -4.71467e-10 -1.96346e-09 -6.00297e-10 -2.6413e-10 -1.14728e-09 -7.73091 5.47488 -0.417314 -6.00293e-10 -2.64132e-10 -1.14728e-09 -2.90554 0.965183 -0.102902 -6.00304e-10 -2.64131e-10 -1.14728e-09 -10.2786 0.731801 -0.0259123 -6.00294e-10 -2.64129e-10 -1.14729e-09 -2.22167 -0.733487 0.20892 -2.03217e-16 0.0 -3.88251e-19 4.2002 -26.3432 -0.775009 -0.202605 31.7125 0.697419 -5.94241 -26.1189 -10.5687 2.03217e-16 0.0 3.88251e-19 4.02064 -29.7547 5.95788 0.21416 38.238 -0.829338 0.767036 -29.4731 0.329974
-72.34 150.985 -54.7829 -97.3343 84.4665 292.665 1.5374 26.5357 -2.35785 1.66701 -2.69532 -0.157462 -3.09632 24.4956 -18.8695 16.7605 -69.6335 -32.4308 -0.0 0.0 0.0 -0.0 0.0 0.0 3.47945e-14 -8.32763e-13 -8.10047e-15 51.1994 42.1305 32.1894 -21.7618 -15.4032 43.153 -1.24825 30.0055 4.65521 4.86682e-10 -2.53994e-10 -1.93016e-10 8.3602e-10 -4.36987e-10 -3.44917e-10 4.86692e-10 -2.53995e-10 -1.93029e-10 7.73091 5.47488 0.417314 4.86683e-10 -2.53996e-10 -1.93012e-10 2.90554 0.965183 0.102902 4.86686e-10 -2.53997e-10 -1.93015e-10 10.2786 0.731801 0.0259123 4.86679e-10 -2.53995e-10 -1.93005e-10 2.22167 -0.733487 -0.20892 3.46893e-14 -8.32769e-13 -8.29615e-15 -59.2477 38.7783 -23.2085 21.9218 -15.641 -43.5755 2.07623 37.3024 -6.14646 -4.81642e-10 -1.95309e-10 -5.86123e-10 -8.47283e-10 -3.42882e-10 -9.98182e-10 -4.81647e-10 -1.95306e-10 -5.86119e-10 -7.73091 5.47488 -0.417314 -4.81642e-10 -1.95309e-10 -5.86123e-10 -2.90554 0.965183 -0.102902 -4.81653e-10 -1.95308e-10 -5.86125e-10 -10.2786 0.731801 -0.0259123 -4.81643e-10 -1.95305e-10 -5.86129e-10 -2.22167 -0.733487 0.20892 -2.03217e-16 0.0 -3.88251e-19 4.18533 -26.3338 -0.537704 -0.204067 31.7251 0.686975 -5.66067 -26.3747 -9.97226 2.03217e-16 0.0 3.88251e-19 3.72963 -29.6759 5.49063 0.212924 38.2026 -0.833484 0.917016 -29.5191 0.61484
